<svg xmlns="http://www.w3.org/2000/svg" width="1200" height="820" viewBox="0 0 1200 820">
<rect width="1200" height="820" fill="#071521"/><style>.t{font-family:Arial,'Noto Sans TC',sans-serif;fill:#edf6ff}.m{fill:#93aabd}.a{fill:#ffc96b}.r{fill:#ff7d87}.box{fill:#102536;stroke:#29485e;stroke-width:2}.h{font-size:30px;font-weight:700}.b{font-size:19px}.s{font-size:16px}</style>
<text x="50" y="55" class="t h">市場即時／波段｜M20260819-0625</text><text x="50" y="87" class="t m s">二次驗證・台股休市・資料時間 06:25 台北</text>
<rect x="50" y="110" width="530" height="170" rx="16" class="box"/><text x="74" y="146" class="t b">TAIEX 45,308.68</text><text x="74" y="178" class="t s">支撐 45,225.42｜壓力 45,857.27 / 46,064.09</text><text x="74" y="212" class="t b">TPEx 390.83 (-1.88%)</text><text x="74" y="244" class="t s">支撐 389.92｜休市，無新成交</text>
<rect x="620" y="110" width="530" height="170" rx="16" class="box"/><text x="644" y="146" class="t b">USD/TWD 官方收 31.945</text><text x="644" y="178" class="t s">臺銀06:11即期買31.87／賣32.02</text><text x="644" y="212" class="t s">銀行牌告非銀行間成交；台幣偏弱</text><text x="644" y="244" class="t s">電子估值／外資偏壓，出口換算較有支撐</text>
<rect x="50" y="310" width="1100" height="150" rx="16" class="box"/><text x="74" y="347" class="t a b">重要消息</text><text x="74" y="382" class="t s">Nasdaq -1.33%｜SOX -4.98%｜TSM盤後 412.82–413.10，未破日低</text><text x="74" y="414" class="t s">Brent 91.02｜WTI 84.94｜美30年債殖利率盤中約5.3371%</text><text x="74" y="446" class="t s">結論：空方壓力未解，但沒有新增崩跌證據</text>
<rect x="50" y="490" width="530" height="235" rx="16" class="box"/><text x="74" y="530" class="t a b">ABC：偏A段 63%（維持）</text><text x="74" y="566" class="t s">主情境：開盤測支撐，資金偏防禦</text><text x="74" y="600" class="t s">多方：守45,225.42＋權值／櫃買／機器人共振</text><text x="74" y="634" class="t s">空方：破45,225.42與389.92且同步惡化</text><text x="74" y="668" class="t s">替代：弱勢B反彈，站回45,857.27才降級A</text><text x="74" y="702" class="t r s">情境推演，不是預言；禁止追空</text>
<rect x="620" y="490" width="530" height="235" rx="16" class="box"/><text x="644" y="530" class="t a b">輪動與下一步</text><text x="644" y="566" class="t s">相對強：能源、醫療、民生防禦</text><text x="644" y="600" class="t s">相對弱：半導體、AI高Beta、記憶體</text><text x="644" y="634" class="t s">08:30：可靠台幣／期貨／試撮</text><text x="644" y="668" class="t s">09:00–09:20：支撐、權值、櫃買廣度</text><text x="644" y="702" class="t s">三大法人：8/19未公布，pending</text>
<text x="50" y="776" class="t m s">風險：油價・長債・科技負廣度・台幣偏弱・休市資料時效</text>
</svg>
