<svg xmlns="http://www.w3.org/2000/svg" width="1200" height="820" viewBox="0 0 1200 820"><rect width="1200" height="820" fill="#071322"/><text x="55" y="62" fill="#fff" font-size="32" font-family="sans-serif" font-weight="700">市場即時／波段｜M20260819-1045</text><text x="55" y="96" fill="#94a3b8" font-size="17" font-family="sans-serif">歷史回補；10:45精確成交快照 unavailable</text><rect x="50" y="125" width="1100" height="120" rx="18" fill="#102033"/><text x="75" y="170" fill="#fca5a5" font-size="25" font-family="sans-serif">TAIEX 09:05舊錨　44,518.07　-790.61</text><text x="75" y="210" fill="#cbd5e1" font-size="19" font-family="sans-serif">早低約44,308｜季線約44,811｜45,000壓力｜TPEx unavailable</text><rect x="50" y="265" width="530" height="170" rx="18" fill="#102033"/><text x="75" y="305" fill="#fff" font-size="22" font-family="sans-serif">USD/TWD</text><text x="75" y="345" fill="#fde68a" font-size="19" font-family="sans-serif">前一日官方收盤31.945</text><text x="75" y="380" fill="#cbd5e1" font-size="17" font-family="sans-serif">10:45 unavailable｜弱台幣偏外資壓力</text><text x="75" y="412" fill="#cbd5e1" font-size="16" font-family="sans-serif">出口、壽險仍須同看需求與避險成本</text><rect x="620" y="265" width="530" height="170" rx="18" fill="#102033"/><text x="645" y="305" fill="#fff" font-size="22" font-family="sans-serif">跨資產</text><text x="645" y="345" fill="#fca5a5" font-size="19" font-family="sans-serif">NASDAQ -1.33%｜SOX約-5%</text><text x="645" y="380" fill="#fca5a5" font-size="19" font-family="sans-serif">TSM ADR 413.41／-4.07%</text><text x="645" y="412" fill="#cbd5e1" font-size="16" font-family="sans-serif">DXY／美債／USDJPY精確值 unavailable</text><rect x="50" y="455" width="1100" height="190" rx="18" fill="#102033"/><text x="75" y="495" fill="#fff" font-size="22" font-family="sans-serif">ABC 情境（非預言）</text><text x="75" y="535" fill="#fde68a" font-size="19" font-family="sans-serif">無新錨：維持A段／修正延伸，信心 low</text><text x="75" y="572" fill="#cbd5e1" font-size="18" font-family="sans-serif">支撐44,308｜壓力44,811、45,000</text><text x="75" y="609" fill="#86efac" font-size="17" font-family="sans-serif">多：收復季線＋廣度修復　基：季線下震盪　空：破早低</text><text x="55" y="700" fill="#fff" font-size="20" font-family="sans-serif">輪動：機器人／自動化僅觀察；法人 target-time pending</text><text x="55" y="742" fill="#fca5a5" font-size="18" font-family="sans-serif">風險：舊錨、SOX弱、油價地緣、題材追高</text><text x="55" y="785" fill="#64748b" font-size="15" font-family="sans-serif">下一確認：新鮮指數匯率、相對強度、廣度量能、盤後法人</text></svg>
