<svg xmlns="http://www.w3.org/2000/svg" width="1200" height="1500" viewBox="0 0 1200 1500">
  <defs><linearGradient id="bg2" x1="0" y1="0" x2="1" y2="1"><stop stop-color="#07111f"/><stop offset="1" stop-color="#17304b"/></linearGradient><style>text{font-family:'Noto Sans TC','Microsoft JhengHei',sans-serif}.w{fill:#f7fafc}.mut{fill:#a8bacd}.red{fill:#ff7782}.green{fill:#4bd6a0}.amber{fill:#ffd166}.box{fill:#10283e;stroke:#2c4d68;stroke-width:2}.s{font-size:21px}.b{font-size:27px}.h{font-size:33px;font-weight:700}.ttl{font-size:47px;font-weight:800}</style></defs>
  <rect width="1200" height="1500" fill="url(#bg2)"/>
  <text x="55" y="72" class="w ttl">市場即時／波段｜05:25</text><text x="55" y="108" class="mut s">2026/08/19 TPE・台股休市・美股正式收盤校正</text>
  <g transform="translate(45 140)"><rect width="1110" height="205" rx="22" class="box"/><text x="30" y="50" class="w h">大盤快照</text><text x="30" y="94" class="w b">加權 45,308.68　低 45,225.42　高 46,064.09</text><text x="30" y="133" class="w b">櫃買 390.83（-7.49）　低 389.92</text><text x="30" y="174" class="red b">NASDAQ -1.33%　SOX 11,992.46（-4.98%）</text></g>
  <g transform="translate(45 365)"><rect width="535" height="250" rx="22" class="box"/><text x="28" y="48" class="w h">USD/TWD</text><text x="28" y="92" class="amber b">官方收盤 31.945</text><text x="28" y="127" class="mut s">前收31.852｜美元升、台幣貶</text><text x="28" y="162" class="w s">夜間參考中價約31.97（非官方）</text><text x="28" y="198" class="mut s">外資風險偏好承壓；出口換算偏正面</text><text x="28" y="228" class="mut s">壽險仍看避險成本；進口成本偏升</text></g>
  <g transform="translate(600 365)"><rect width="555" height="250" rx="22" class="box"/><text x="28" y="48" class="w h">跨資產壓力</text><text x="28" y="92" class="red b">TSM ADR 413.41（-4.07%）</text><text x="28" y="127" class="w s">低410.765，未再破低</text><text x="28" y="162" class="w s">美30年債殖利率盤中高5.3371%</text><text x="28" y="197" class="w s">Brent 91.02｜WTI 84.94（Reuters）</text><text x="28" y="228" class="mut s">DXY／USDJPY：本輪可靠新數字 unavailable</text></g>
  <g transform="translate(45 635)"><rect width="1110" height="240" rx="22" class="box"/><text x="30" y="50" class="w h">ABC 修正波情境</text><text x="30" y="94" class="amber b">主情境：偏A段初跌／延伸，信心 61%</text><text x="30" y="130" class="w s">SOX終值較前版略收斂，只下修悲觀信心；未確認B段</text><text x="30" y="166" class="green s">B段條件：守45,225.42、站回45,857.27、權值與櫃買廣度改善</text><text x="30" y="202" class="red s">A延伸：破45,225.42，且電子／櫃買同步擴跌</text><text x="30" y="228" class="mut s">替代情境失效：有效站回46,189.30並有量價廣度共振</text></g>
  <g transform="translate(45 895)"><rect width="535" height="300" rx="22" class="box"/><text x="28" y="48" class="w h">資金輪動／廣度</text><text x="28" y="90" class="red s">NASDAQ 上漲1,778／下跌2,977</text><text x="28" y="124" class="mut s">下跌／上漲比1.67</text><text x="28" y="158" class="mut s">成交14.86B，低於20日均量16.88B</text><text x="28" y="202" class="green s">較強：能源、醫療、必需消費</text><text x="28" y="236" class="red s">較弱：科技、半導體</text><text x="28" y="270" class="mut s">台灣法人：休市，下一交易日 pending</text></g>
  <g transform="translate(600 895)"><rect width="555" height="300" rx="22" class="box"/><text x="28" y="48" class="w h">下一時段注意</text><text x="28" y="90" class="w s">① 09:00後45,225.42是否守住</text><text x="28" y="124" class="w s">② 45,857.27能否站回</text><text x="28" y="158" class="w s">③ 台積電承接＋櫃買廣度</text><text x="28" y="192" class="w s">④ 機器人同層2–3檔共振</text><text x="28" y="226" class="w s">⑤ USD/TWD與外資資料（未公布pending）</text><text x="28" y="260" class="amber s">Fed紀要／Walmart／油價／地緣消息</text></g>
  <g transform="translate(45 1215)"><rect width="1110" height="220" rx="22" class="box"/><text x="30" y="50" class="w h">三情境</text><text x="30" y="92" class="green s">Bull：守支撐、站回反壓、權值與機器人共振</text><text x="30" y="128" class="amber s">Base：開低後支撐震盪，資金轉防禦，等第二次確認</text><text x="30" y="164" class="red s">Bear：破支撐，台積電／櫃買／機器人鏈同步擴跌</text><text x="30" y="202" class="mut s">ABC為技術推演，不是預言；休市沒有新台股成交。</text></g>
  <text x="55" y="1475" class="mut s">資料時間與來源已存入 M20260819-0525.market.json｜不保證獲利</text>
</svg>
