<svg xmlns="http://www.w3.org/2000/svg" width="1200" height="675"><rect width="1200" height="675" fill="#07111f"/><text x="55" y="70" fill="#fff" font-size="34" font-family="sans-serif">M20260821-0025｜2026-08-21 00:25</text><text x="55" y="108" fill="#fbbf24" font-size="21" font-family="sans-serif">歷史時點素材｜ABC僅條件情境</text><rect x="55" y="145" width="340" height="160" rx="20" fill="#12324a"/><text x="82" y="190" fill="#7dd3fc" font-size="24" font-family="sans-serif">台股封存</text><text x="82" y="232" fill="#fff" font-size="26" font-family="sans-serif">TAIEX 44,933.74</text><text x="82" y="270" fill="#fff" font-size="23" font-family="sans-serif">TPEx 389.96｜台積電 2,375</text><rect x="430" y="145" width="340" height="160" rx="20" fill="#3f2b18"/><text x="457" y="190" fill="#fde68a" font-size="24" font-family="sans-serif">09:44 ET 舊快照</text><text x="457" y="232" fill="#fff" font-size="26" font-family="sans-serif">NASDAQ 26,254.38</text><text x="457" y="270" fill="#fff" font-size="22" font-family="sans-serif">10Y 4.698%｜30Y 5.239%</text><rect x="805" y="145" width="340" height="160" rx="20" fill="#3b1d2f"/><text x="832" y="190" fill="#fda4af" font-size="24" font-family="sans-serif">資料缺口</text><text x="832" y="232" fill="#fff" font-size="22" font-family="sans-serif">SOX／TSM目標分鐘</text><text x="832" y="270" fill="#fff" font-size="22" font-family="sans-serif">USDJPY unavailable</text><rect x="55" y="345" width="520" height="195" rx="20" fill="#102b27"/><text x="82" y="392" fill="#86efac" font-size="24" font-family="sans-serif">資金與輪動</text><text x="82" y="434" fill="#fff" font-size="22" font-family="sans-serif">外資 +37.82億｜三大法人 -35.37億</text><text x="82" y="472" fill="#fff" font-size="22" font-family="sans-serif">AI韌性；零售、長債承壓</text><text x="82" y="510" fill="#fff" font-size="22" font-family="sans-serif">五檔 WAIT｜零成交</text><rect x="610" y="345" width="535" height="195" rx="20" fill="#1f2745"/><text x="637" y="392" fill="#c4b5fd" font-size="24" font-family="sans-serif">ABC條件情境</text><text x="637" y="434" fill="#fff" font-size="22" font-family="sans-serif">弱B修復仍脆弱</text><text x="637" y="472" fill="#fff" font-size="22" font-family="sans-serif">支撐 44,682／44,446</text><text x="637" y="510" fill="#fff" font-size="22" font-family="sans-serif">壓力 45,000／45,160｜信心不足</text><text x="55" y="620" fill="#94a3b8" font-size="20" font-family="sans-serif">USD/TWD 31.925｜DXY 98.61 stale｜禁止倒填事後行情</text></svg>